<svg width="8" height="8" viewBox="0 0 8 8" fill="none" xmlns="http://www.w3.org/2000/svg">
<path d="M4.58782 3.99093L7.90382 0.683803C7.96935 0.607487 8.00359 0.50932 7.9997 0.408919C7.99581 0.308518 7.95408 0.213277 7.88284 0.14223C7.81161 0.0711828 7.71611 0.0295613 7.61544 0.0256832C7.51477 0.0218051 7.41634 0.0559562 7.33982 0.121311L4.02382 3.42844L0.707817 0.117322C0.632496 0.042202 0.530338 0 0.423817 0C0.317297 0 0.215139 0.042202 0.139817 0.117322C0.0644959 0.192442 0.0221807 0.294327 0.0221807 0.400562C0.0221807 0.506798 0.0644959 0.608683 0.139817 0.683803L3.45982 3.99093L0.139817 7.29807C0.0979447 7.33383 0.0639366 7.37784 0.0399273 7.42733C0.0159179 7.47682 0.00242587 7.53073 0.000298076 7.58567C-0.00182972 7.64061 0.00745246 7.6954 0.0275623 7.74659C0.0476721 7.79778 0.0781754 7.84428 0.117157 7.88316C0.156139 7.92203 0.202758 7.95245 0.254088 7.97251C0.305418 7.99257 0.360351 8.00182 0.415439 7.9997C0.470526 7.99758 0.524579 7.98412 0.574205 7.96018C0.623831 7.93623 0.667958 7.90232 0.703817 7.86056L4.02382 4.55343L7.33982 7.86056C7.41634 7.92591 7.51477 7.96006 7.61544 7.95618C7.71611 7.95231 7.81161 7.91069 7.88284 7.83964C7.95408 7.76859 7.99581 7.67335 7.9997 7.57295C8.00359 7.47255 7.96935 7.37438 7.90382 7.29807L4.58782 3.99093Z" fill="#470B56"/>
</svg>
